<?xml version='1.0' encoding='utf-8'?>
<svg width="513.0000000002mm" height="333.987167779mm" viewBox="-4.2373727397 -2.9088450268 8.3762556404 5.453337033" version="1.1" xmlns="http://www.w3.org/2000/svg">
  <g transform="scale(1,-1)" stroke-linecap="round">
    <g fill="none" stroke="rgb(64,192,64)" stroke-width="0.01632798370447798" id="Visible">
      <line x1="-3.6982835625" y1="1.8554832842" x2="-3.6982835625" y2="1.7022775026" />
      <path d="M -3.4859134884,1.4779836873 C -3.5234758117,1.499583849 -3.5609712634,1.5129564344 -3.59852633,1.539235283 C -3.6354402997,1.5642427724 -3.6739858996,1.6075712425 -3.6903443623,1.6572989448" />
      <line x1="-4.2292087479" y1="2.1608748532" x2="-3.6982835625" y2="1.8554832842" />
      <line x1="3.3807189088" y1="-2.2164043025" x2="3.3807189088" y2="-2.3696100841" />
      <path d="M 3.1683488347,-2.3495906442 C 3.2118021562,-2.3746037639 3.2557211396,-2.4108658757 3.2988220234,-2.4248495358 C 3.3413463098,-2.4406541624 3.381446357,-2.4225005786 3.3807189088,-2.3696100841" />
      <line x1="3.3807189088" y1="-2.2164043025" x2="3.9116440942" y2="-2.5217958715" />
      <line x1="3.9116440942" y1="-2.5217958715" x2="3.9116440942" y2="-1.9089727452" />
      <line x1="2.8497937235" y1="-1.2981896072" x2="3.9116440942" y2="-1.9089727452" />
      <line x1="2.8497937235" y1="-1.2981896072" x2="2.8497937235" y2="-1.5024639827" />
      <line x1="-3.1673583772" y1="1.958640466" x2="2.8497937235" y2="-1.5024639827" />
      <line x1="-4.2292087479" y1="2.7736979795" x2="-4.2292087479" y2="2.1608748532" />
      <line x1="-3.1673583772" y1="1.958640466" x2="-3.1673583772" y2="2.1629148415" />
      <line x1="-4.2292087479" y1="2.7736979795" x2="-3.1673583772" y2="2.1629148415" />
      <line x1="-2.8640625722" y1="2.0895751143" x2="2.9448198591" y2="-1.2517312858" />
      <path d="M -3.1673583772,2.1629148415 A 0.75,0.4323746244349045 0.0 0,1 -2.9482835625,2.4683064105" />
      <path d="M -2.9482835625,2.4683064105 A 0.75,0.4323746244349045 0.0 0,1 -4.2292087479,2.7736979795" />
      <path d="M -3.1673583772,1.958640466 A 0.75,0.4323746244349045 0.0 0,1 -2.9510587643,2.2268708355" />
      <path d="M -2.8640625722,2.0895751143 A 0.3,0.1729498497739618 180.0 0,0 -2.952168845,2.2120063557" />
      <path d="M -2.952168845,2.2120063557 A 0.3,0.1729498497739618 180.0 0,0 -2.9510587643,2.2268708355" />
      <path d="M 3.9116440942,-2.5217958715 A 0.75,0.4323746244349045 0.0 0,1 4.1307189088,-2.2164043025" />
      <path d="M 3.9116440942,-1.9089727452 A 0.75,0.4323746244349045 0.0 0,1 4.1307189088,-1.6035811762" />
      <path d="M 4.1307189088,-1.6035811762 A 0.75,0.4323746244349045 0.0 0,1 2.8497937235,-1.2981896072" />
      <path d="M -3.6982835625,1.7022775026 C -3.6982835625,1.6625737007 -3.6796307454,1.6109178286 -3.6453101307,1.6307481252" />
      <path d="M -3.4454368982,1.3911201938 Q -3.4850374043,1.4138512613 -3.4859134884,1.4779836873" />
      <line x1="-3.4859134884" y1="1.4779836873" x2="3.1683488347" y2="-2.3495906442" />
      <path d="M 3.2072938676,-2.4356015514 Q 3.1691573221,-2.4123446222 3.1683488347,-2.3495906442" />
      <line x1="-2.9510587643" y1="2.2268708355" x2="-2.9510587643" y2="2.1971418759" />
      <line x1="3.4336923406" y1="-2.4411394615" x2="3.4336923406" y2="-2.24687496" />
      <path d="M 3.3807189088,-2.3696100841 C 3.3807189088,-2.409313886 3.3993717259,-2.4609697581 3.4336923406,-2.4411394615" />
      <path d="M 3.5213222665,-2.3189828339 A 0.3,0.1729498497739618 -180.0 0,0 3.4336923406,-2.4411394615" />
      <path d="M -3.4454934775,1.3910694952 Q -3.4604937051,1.3987393974 -3.4754939326,1.4064092995 Q -3.5145227743,1.4215595648 -3.5657831151,1.4392444183 Q -3.6170760748,1.4581345993 -3.6530558896,1.4975449323 Q -3.6677402447,1.5139855679 -3.6763533726,1.5350718656 Q -3.6891403145,1.5732132758 -3.6845156718,1.6125289809 Q -3.6818144776,1.6396823525 -3.6824370354,1.6591892058" />
      <line x1="-3.4469684555" y1="1.3919727801" x2="3.2072938676" y2="-2.4356015514" />
      <line x1="-2.9482835625" y1="2.4683064105" x2="-2.9482835625" y2="2.1842619672" />
      <path d="M 3.4865133916,-2.4410247614 C 3.4772619017,-2.4562907533 3.4670282204,-2.4699025806 3.4558123475,-2.4818602433 C 3.440653101,-2.4969711173 3.4265541034,-2.5083557962 3.4135153547,-2.51601428 C 3.402360659,-2.5244250884 3.387760565,-2.5309327972 3.3697150728,-2.5355374063 C 3.3369656395,-2.5400799537 3.311412606,-2.5222364536 3.2859092141,-2.5003105411 C 3.2681661394,-2.4837926752 3.2527184798,-2.4696642131 3.2395662353,-2.4579251547 C 3.2300119613,-2.4496952397 3.2199161699,-2.4426528694 3.2092788612,-2.4367980437" />
      <line x1="4.1307189088" y1="-1.6035811762" x2="4.1307189088" y2="-2.2164043025" />
      <line x1="3.5213222665" y1="-2.3189828339" x2="3.5213222665" y2="-2.2972802549" />
      <path d="M 3.5213222665,-2.3189828339 Q 3.520971076,-2.3833715147 3.4869646486,-2.4390479265" />
    </g>
  </g>
</svg>