<?xml version='1.0' encoding='utf-8'?>
<svg width="350.2486771602mm" height="512.9999999998mm" viewBox="-25.9106010856 -51.6043054414 61.2820738902 89.7582373774" version="1.1" xmlns="http://www.w3.org/2000/svg">
  <g transform="scale(1,-1)" stroke-linecap="round">
    <g fill="none" stroke="rgb(64,192,64)" stroke-width="0.1749673243224723" id="Visible">
      <path d="M 35.2839890425,24.821087258 L 35.2785988604,24.9997152706 L 35.2624324473,25.1719717725 L 35.2355021988,25.3377246839 L 35.1978287642,25.4968469118 L 35.1494410299,25.649216447 L 35.090376098,25.7947164585 L 35.0206792571,25.933235382 L 34.9404039483,26.0646670067 L 34.8496117235,26.1889105555 L 34.748372199,26.3058707631 L 34.6367630014,26.4154579489 L 34.5148697084,26.5175880855 L 34.3827857833,26.6121828634 L 34.2406125032,26.6991697506" />
      <path d="M 34.2406125032,26.6991697506 L 32.7315488497,27.1164761203 L 30.6454689356,27.0109599269 L 28.086977519,26.3879121932 L 25.1843680438,25.2785751343 L 22.0831894702,23.7385755429 L 18.9389478421,21.8451354294 L 15.9093085649,19.6931997879 L 13.1461904037,17.390675658 L 10.7881476416,15.0530212147 L 8.9534223897,12.7974562137 L 7.734015434,10.7370841033 L 7.1910729313,8.975220545 L 7.3518202859,7.6002127351 L 8.2081969544,6.6810093071" />
      <path d="M 8.2081969544,6.6810093071 L 9.4980040608,6.2870979472 L 11.240092251,6.2944244828 L 13.367270103,6.7027063332 L 15.7974934898,7.4961962828 L 18.4370299779,8.6442898433 L 21.1840740381,10.1027056517 L 23.9326736307,11.8151933803 L 26.5768167202,13.7157032809 L 29.014520103,15.7309336899 L 31.1517628463,17.783158234 L 32.9061126255,19.7932236955 L 34.2099050954,21.6836029106 L 35.0128536686,23.3813849505 L 35.2839890425,24.821087258" />
      <path d="M 10.0967676652,20.8632416645 L 8.8657895671,19.7898340609 L 7.7213791613,18.7090584529 L 6.6757802556,17.6324778327 L 5.7401794942,16.5716103113 L 4.924586674,15.5378058887 L 4.2377276522,14.5421250223 L 3.6869509898,13.5952202935 L 3.2781493313,12.7072224382 L 3.0156963602,11.8876319598 L 2.9024000059,11.1452174856 L 2.9394724025,10.4879219528 L 3.1265169201,9.9227776289 L 3.4615324086,9.4558308751 L 3.9409346073,9.0920774569" />
      <path d="M 10.0967676711,20.8632416775 L 11.8747936491,19.8586299484" />
      <path d="M 11.8747936485,19.8586299511 C 14.1240960744,21.7417257965 16.4322923044,23.3252683875 18.7351683333,24.6606326524 C 21.0380517374,25.988890392 23.3462505005,27.0751187548 25.5955430179,27.7936712085" />
      <path d="M 23.8175170396,28.7982829356 L 25.5955430176,27.7936712065" />
      <path d="M 29.9733501561,29.1102379004 L 29.7027478099,29.2430514518 L 29.4026647537,29.3524067038 L 29.0737950827,29.4380507167 L 28.7168994754,29.4997853949 L 28.3328034351,29.5374679457 L 27.9223953795,29.5510112089 L 27.4866245865,29.5403838588 L 27.0264989982,29.5056104766 L 26.5430828896,29.4467714934 L 26.0374944068,29.3640030043 L 25.5109029811,29.2574964538 L 24.9645266234,29.1274981925 L 24.3996291077,28.9743089076 L 23.8175170473,28.7982829275" />
      <path d="M 24.6986852319,27.4897445746 A 12.0,6.921624791326144 -119.46710905152722 0,1 23.8175170473,28.7982829275" />
      <path d="M 6.2889864885,39.8980231398 C 6.6415986194,40.1023375221 6.8243190372,40.4022871504 6.8246860864,40.7774152582" />
      <path d="M -8.4709209332,47.0555248253 L -8.3222401196,46.4078310362 L -7.8819786841,45.6632682382 L -7.1672548564,44.8507864954 L -6.2058585028,44.0019766941 L -5.0351706021,43.1498422267 L -3.7007097996,42.3275157553 L -2.2543625528,41.5669709485 L -0.7523656838,40.8977792823 L 0.7468802186,40.3459602434 L 2.1850815286,39.9329696399 L 3.5063181539,39.6748653579 L 4.6592178193,39.5816829987 L 5.5989535208,39.6570456757 L 6.2889864885,39.8980231398" />
      <path d="M 6.2889864885,43.1800664892 C 6.6415986194,43.3843808715 6.8243190372,43.6843304998 6.8246860864,44.0594586077" />
      <path d="M 6.8246860864,44.0594586077 L 6.6329396984,44.8034495744 L 6.0673154702,45.6675390433 L 5.1561761627,46.60839796 L 3.9452101056,47.5788477294 L 2.495140194,48.5302259475 L 0.8786789885,49.4148265377 L -0.8231173956,50.1882919322 L -2.5249137811,50.8118373462 L -4.1413749906,51.2541956088 L -5.5914449089,51.4931850295 L -6.8024109748,51.5168216806 L -7.7135502929,51.3239203218 L -8.2791745328,50.9241538328 L -8.4709209332,50.3375681747" />
      <path d="M -8.4709209332,50.3375681747 L -8.3222401196,49.6898743856 L -7.8819786841,48.9453115876 L -7.1672548564,48.1328298448 L -6.2058585028,47.2840200435 L -5.0351706021,46.4318855761 L -3.7007097996,45.6095591047 L -2.2543625528,44.8490142979 L -0.7523656838,44.1798226317 L 0.7468802186,43.6280035928 L 2.1850815286,43.2150129894 L 3.5063181539,42.9569087073 L 4.6592178193,42.8637263482 L 5.5989535208,42.9390890251 L 6.2889864885,43.1800664892" />
      <path d="M 22.4478163059,26.574753326 A 25.0,14.290774248316701 -1.9381551934913106e-15 0,1 -25.8231174234,21.3524220289" />
      <path d="M -25.8231174234,21.3524220289 A 25.0,14.290774248316701 -1.9381551934913106e-15 0,1 6.4427386651,7.6785201088" />
      <path d="M 16.9571423563,-33.8217913163 A 25.0,14.290774248316701 -1.9381551934913106e-15 0,1 24.1768825766,-23.7756740255" />
      <path d="M -25.8231174234,-23.7756740255 A 25.0,14.290774248316701 -1.9381551934913106e-15 0,1 16.9571423563,-33.8217913163" />
      <path d="M 34.2406125018,26.6991697487 L 29.9733501546,29.1102378984" />
      <path d="M 8.2081969537,6.6810093154 L 3.9409346065,9.0920774652" />
      <path d="M 6.8246860859,40.7774152586 L 6.8246860859,44.059458608" />
      <path d="M -8.4709209297,47.0555248277 L -8.4709209297,50.3375681771" />
      <line x1="24.1768825766" y1="-23.7756740255" x2="24.1768825766" y2="11.9798587595" />
      <line x1="-25.8231174234" y1="-23.7756740255" x2="-25.8231174234" y2="21.3524220289" />
    </g>
  </g>
</svg>