<?xml version='1.0' encoding='utf-8'?>
<svg width="372.5468005454mm" height="513.0000000002mm" viewBox="-40.8017966786 -47.1044908349 62.4392446499 85.979352013" version="1.1" xmlns="http://www.w3.org/2000/svg">
  <g transform="scale(1,-1)" stroke-linecap="round">
    <g fill="none" stroke="rgb(64,192,64)" stroke-width="0.1676010760486725" id="Visible">
      <line x1="-40.7179961406" y1="-20.509288701" x2="-3.3838552669" y2="-36.9620798957" />
      <line x1="-40.7179961406" y1="-20.509288701" x2="-40.7179961406" y2="-7.3817710047" />
      <line x1="-16.6910737961" y1="36.2902054963" x2="-3.3838552669" y2="30.4258442784" />
      <line x1="-40.7179961406" y1="-7.3817710047" x2="-16.6910737961" y2="-17.9702009815" />
      <line x1="-16.6910737961" y1="-17.9702009815" x2="-16.6910737961" y2="36.2902054963" />
      <path d="M 21.5536474332,-31.4179960821 A 14.5,7.01538173128136 -180.0 0,0 17.7733512485,-36.142064841" />
      <line x1="17.0999639775" y1="-36.4997476677" x2="17.7733512485" y2="-36.142064841" />
      <path d="M -3.3838552669,-36.9620798957 A 14.5,7.01538173128136 3.634222503127796e-15 0,1 17.0999639775,-36.4997476677" />
      <path d="M -3.3838552669,30.4258442784 A 14.5,7.01538173128136 3.634222503127796e-15 0,1 9.7707638938,28.7913438371" />
      <line x1="9.7707638938" y1="28.7913438371" x2="9.7707638938" y2="-25.4690626408" />
      <path d="M 9.7707638938,-25.4690626408 A 14.5,7.01538173128136 3.634222503127796e-15 0,1 17.0999639775,-23.3722299714" />
      <line x1="-40.7179961406" y1="-7.3817710047" x2="-20.5163780113" y2="3.3487137958" />
      <line x1="3.5105443332" y1="47.0206902968" x2="16.8177628624" y2="41.1563290789" />
      <path d="M 16.8177628624,41.1563290789 A 14.5,7.01538173128136 -180.0 0,0 21.5536474332,35.969928092" />
      <path d="M 21.5536474332,35.969928092 A 14.5,7.01538173128136 -180.0 0,0 21.4061017407,34.9716812297" />
      <line x1="-16.6910737961" y1="36.2902054963" x2="3.5105443332" y2="47.0206902968" />
      <line x1="9.7707638938" y1="28.7913438371" x2="21.4061017407" y2="34.9716812297" />
      <line x1="-20.5163780113" y1="3.3487137958" x2="-16.6910737961" y2="1.6629395946" />
      <line x1="21.4061017407" y1="34.9716812297" x2="21.4061017407" y2="-19.2887252482" />
      <path d="M 21.4061017407,-19.2887252482 A 14.5,7.01538173128136 -180.0 0,0 17.7733512485,-23.0145471448" />
      <line x1="17.0999639775" y1="-23.3722299714" x2="17.7733512485" y2="-23.0145471448" />
      <line x1="9.7707638938" y1="-25.4690626408" x2="21.4061017407" y2="-19.2887252482" />
      <line x1="-3.3838552669" y1="-36.9620798957" x2="-3.3838552669" y2="30.4258442784" />
      <line x1="17.0999639775" y1="-36.4997476677" x2="17.0999639775" y2="-23.3722299714" />
      <line x1="17.7733512485" y1="-36.142064841" x2="17.7733512485" y2="-23.0145471448" />
      <line x1="21.5536474332" y1="-31.4179960821" x2="21.5536474332" y2="35.969928092" />
    </g>
  </g>
</svg>