<?xml version='1.0' encoding='utf-8'?>
<svg width="198.4544708146mm" height="512.9999999998mm" viewBox="-19.1464544958 -43.8504395391 38.292955874 98.9863633846" version="1.1" xmlns="http://www.w3.org/2000/svg">
  <g transform="scale(1,-1)" stroke-linecap="round">
    <g fill="none" stroke="rgb(64,192,64)" stroke-width="0.19295587404411912" id="Visible">
      <path d="M 3.3676189285,-54.1342384517 A 4.762499999999999,3.0905728126533196 0.0 0,1 4.7353787172,-52.2783761775" />
      <path d="M -4.7353318347,-52.2783761775 A 4.762499999999999,3.0905728126533196 0.0 0,1 3.3676189285,-54.1342384517" />
      <path d="M 11.2253417319,-0.0495600947 A 15.875,10.301909375511066 0.0 0,1 15.8750234413,7.2349910913" />
      <path d="M -15.8749765587,7.2349910913 A 15.875,10.301909375511066 0.0 0,1 11.2253417319,-0.0495600947" />
      <line x1="11.2253417319" y1="-0.0495600947" x2="11.2253417319" y2="16.8601153874" />
      <path d="M 11.2253417319,16.8601153874 A 15.875,10.301909375511066 0.0 0,1 15.4319034749,21.7276226352" />
      <path d="M -15.4318565924,21.7276226352 A 15.875,10.301909375511066 0.0 0,1 11.2253417319,16.8601153874" />
      <path d="M -5.7980268065,6.0996091285 C -5.7957229979,7.2666314027 -6.3688531992,8.5558993624 -7.4311412962,9.8642281209 C -7.8863735808,10.4264362652 -8.4337544638,10.9973491016 -9.0528466802,11.5560081426 C -9.4546714257,11.9186152398 -9.8869432591,12.2755747135 -10.3251582631,12.6051192692 C -10.93790065,13.0665164211 -11.5549204336,13.4661597991 -12.0756526199,13.7389832582 C -12.4434510149,13.9314025005 -12.7646066336,14.0662229747 -13.0391194759,14.1434446807 C -13.5362610193,14.284407046 -13.8825914498,14.2498840789 -14.1365220359,14.0859603049" />
      <path d="M -14.1365220359,14.0859603049 C -14.5087788441,13.8415926711 -14.6856136528,13.3163385242 -14.752466868,12.5715744416 C -14.7709155735,12.3576690312 -14.7794782553,12.126720301 -14.7781549135,11.8787282511 C -14.7747185318,11.2990807574 -14.719979025,10.633485708 -14.6028965143,9.9073399676 C -14.4850143759,9.1818796936 -14.3046147057,8.3945237034 -14.0282866766,7.5895402892 C -13.7867779718,6.8886385877 -13.4700817522,6.1680254862 -13.0407298283,5.4862365774 C -12.7618981361,5.0438144964 -12.43378506,4.6192623472 -12.0584312823,4.2489246928 C -11.5357464274,3.7290857 -10.9175365456,3.330214623 -10.3050119867,3.1169588106 C -9.8745016461,2.9646933622 -9.4501779476,2.8979075356 -9.0551659697,2.8983399824 C -8.3381575431,2.9000578033 -7.7187914566,3.1117642445 -7.2231182094,3.4325642491" />
      <path d="M -7.2231182094,3.4325642491 C -6.4897829771,3.9112497392 -6.0257897214,4.6228521896 -5.8633980878,5.4296148739 C -5.8198421319,5.6465300739 -5.7980517048,5.8698614921 -5.7980268065,6.0996091285" />
      <path d="M 13.4704053901,22.6502089282 A 19.049999999999997,12.362291250613278 0.0 0,1 19.0500234413,31.3916703514" />
      <path d="M 19.0500234413,31.3916703514 A 19.049999999999997,12.362291250613278 0.0 0,1 -19.0499765587,31.3916703514" />
      <path d="M -19.0499765587,31.3916703514 A 19.049999999999997,12.362291250613278 0.0 0,1 13.4704053901,22.6502089282" />
      <path d="M 13.4704053901,20.2345410022 A 19.049999999999997,12.362291250613278 0.0 0,1 19.0500234413,28.9760024254" />
      <path d="M -19.0499765587,28.9760024254 A 19.049999999999997,12.362291250613278 0.0 0,1 13.4704053901,20.2345410022" />
      <line x1="4.7353787172" y1="-52.2783761775" x2="13.7110245571" y2="2.0425014112" />
      <line x1="-4.7353318347" y1="-52.2783761775" x2="-13.7109776746" y2="2.0425014112" />
      <line x1="15.8750234413" y1="7.2349910913" x2="15.8750234413" y2="22.1424888209" />
      <line x1="-15.8749765587" y1="7.2349910913" x2="-15.8749765587" y2="22.1424888209" />
      <line x1="19.0500234413" y1="28.9760024254" x2="19.0500234413" y2="31.3916703514" />
      <line x1="-19.0499765587" y1="28.9760024254" x2="-19.0499765587" y2="31.3916703514" />
    </g>
  </g>
</svg>