<?xml version='1.0' encoding='utf-8'?>
<svg width="512.9999999998mm" height="336.5836323595mm" viewBox="-63.7752556037 -43.1289658286 127.5505112074 83.6869675858" version="1.1" xmlns="http://www.w3.org/2000/svg">
  <g transform="scale(1,-1)" stroke-linecap="round">
    <g fill="none" stroke="rgb(64,192,64)" stroke-width="0.24863647408857698" id="Visible">
      <line x1="-47.285546029" y1="21.5767540895" x2="-47.285546029" y2="33.5545545537" />
      <line x1="-47.285546029" y1="33.5545545537" x2="-46.8312199462" y2="34.1451853685" />
      <line x1="-30.9562623851" y1="4.0774683749" x2="23.6509373667" y2="-14.387080014" />
      <line x1="40.0163287043" y1="-7.9429740376" x2="23.6870450603" y2="-2.4214887871" />
      <line x1="40.0163287043" y1="-7.9429740376" x2="40.0163287043" y2="4.0348264265" />
      <line x1="-47.285546029" y1="33.5545545537" x2="40.0163287043" y2="4.0348264265" />
      <line x1="-30.9562623851" y1="16.055268839" x2="-47.285546029" y2="21.5767540895" />
      <line x1="-30.9562623851" y1="4.0774683749" x2="-30.9562623851" y2="16.055268839" />
      <line x1="-46.8312199462" y1="34.1451853685" x2="40.4706547871" y2="4.6254572414" />
      <line x1="40.0163287043" y1="4.0348264265" x2="40.4706547871" y2="4.6254572414" />
      <line x1="40.4706547871" y1="-7.3523432227" x2="40.4706547871" y2="4.6254572414" />
      <path d="M -47.285546029,30.2682064608 A 7.0,4.641054275610801 0.0 0,1 -50.6509373667,26.3018006085" />
      <path d="M -50.6509373667,26.3018006085 A 7.0,4.641054275610801 0.0 0,1 -47.285546029,22.3353947562" />
      <path d="M -40.4706547871,39.3932375422 A 20.0,13.260155073173719 0.0 0,1 -63.6509373667,26.3018006085" />
      <path d="M -63.6509373667,26.3018006085 A 20.0,13.260155073173719 0.0 0,1 -30.9562623851,16.055268839" />
      <path d="M 61.4676464959,-9.2423618303 A 20.0,13.260155073173719 0.0 0,1 63.6509373667,-3.2179275187" />
      <path d="M 63.6509373667,-3.2179275187 A 20.0,13.260155073173719 0.0 0,1 47.285546029,9.8214245803" />
      <path d="M 23.6870450603,-2.4214887871 A 20.0,13.260155073173719 0.0 0,1 23.6509373667,-3.2179275187" />
      <path d="M 23.6509373667,-3.2179275187 A 20.0,13.260155073173719 0.0 0,1 61.4676464959,-9.2423618303" />
      <path d="M 61.4676464959,-33.1979627586 A 20.0,13.260155073173719 0.0 0,1 63.6509373667,-27.1735284469" />
      <path d="M 23.6509373667,-27.1735284469 A 20.0,13.260155073173719 0.0 0,1 61.4676464959,-33.1979627586" />
      <line x1="40.0163287043" y1="-7.9429740376" x2="40.4706547871" y2="-7.3523432227" />
      <path d="M 40.4706547871,-7.3523432227 A 7.0,4.641054275610801 0.0 0,1 49.8867855619,-5.3264795277" />
      <path d="M 49.8867855619,-5.3264795277 A 7.0,4.641054275610801 0.0 0,1 50.6509373667,-3.2179275187" />
      <path d="M 50.6509373667,-3.2179275187 A 7.0,4.641054275610801 0.0 0,1 46.8312199462,0.9164881854" />
      <line x1="46.8312199462" y1="0.9164881854" x2="47.285546029" y2="1.5071190003" />
      <path d="M -25.8342282374,-3.6782346314 A 20.0,13.260155073173719 0.0 0,1 -23.6811589772,1.6175088912" />
      <path d="M -63.6509373667,2.3461996802 A 20.0,13.260155073173719 0.0 0,1 -25.8342282374,-3.6782346314" />
      <line x1="46.8312199462" y1="-7.3523432227" x2="46.8312199462" y2="0.9164881854" />
      <line x1="47.285546029" y1="1.5071190003" x2="47.285546029" y2="13.4849194644" />
      <line x1="-40.0163287043" y1="43.0046475916" x2="47.285546029" y2="13.4849194644" />
      <line x1="-40.4706547871" y1="31.9944623193" x2="-40.4706547871" y2="42.4140167767" />
      <line x1="-40.4706547871" y1="42.4140167767" x2="-40.0163287043" y2="43.0046475916" />
      <line x1="46.8312199462" y1="0.9164881854" x2="46.8312199462" y2="12.8942886496" />
      <line x1="46.8312199462" y1="12.8942886496" x2="47.285546029" y2="13.4849194644" />
      <line x1="-40.4706547871" y1="42.4140167767" x2="46.8312199462" y2="12.8942886496" />
      <line x1="63.6509373667" y1="-27.1735284469" x2="63.6509373667" y2="-3.2179275187" />
      <line x1="23.6509373667" y1="-27.1735284469" x2="23.6509373667" y2="-3.2179275187" />
      <line x1="-63.6509373667" y1="2.3461996802" x2="-63.6509373667" y2="26.3018006085" />
    </g>
  </g>
</svg>