<?xml version='1.0' encoding='utf-8'?>
<svg width="512.9999999983mm" height="72.6610587044mm" viewBox="125.1119928728 98.9346278322 10.7709436046 1.525590966" version="1.1" xmlns="http://www.w3.org/2000/svg">
  <g transform="scale(1,-1)" stroke-linecap="round">
    <g fill="none" stroke="rgb(64,192,64)" stroke-width="0.02099599143203945" id="Visible">
      <path d="M 125.1787449126,-99.8454763551 A 0.75,0.0007207752978413511 0.0 0,0 126.4023793862,-99.8452401461" />
      <path d="M 134.4286923258,-99.8491280902 A 0.75,0.0007207752978413511 0.0 0,0 134.572975888,-99.8489113807" />
      <path d="M 125.8762533633,-99.8464710015 A 0.75,0.0007207752978413511 -3.106011865451322e-18 0,0 125.1787449126,-99.8454763551" />
      <path d="M 125.1787449126,-99.0454767246 A 0.75,0.0007207752978413511 0.0 0,0 126.6224909686,-99.0457506047" />
      <path d="M 125.1224909686,-99.0457506047 A 0.75,0.0007207752978413511 0.0 0,0 125.1787449126,-99.0454767246" />
      <path d="M 126.6221326824,-99.8457725118 A 0.75,0.0007207752978413509 0.0 0,0 126.4219534623,-99.8462408248" />
      <path d="M 125.2561005202,-98.9455523823 A 0.65,0.0006246719247958376 0.0 0,0 125.2712443867,-98.9455132881" />
      <line x1="126.192978386" y1="-99.9452533357" x2="126.3317275972" y2="-99.9453081118" />
      <path d="M 125.9319834566,-99.9453580913 A 0.2,0.00019220674609102695 0.0 0,0 126.192978386,-99.9452533357" />
      <line x1="125.9319834566" y1="-99.9453580913" x2="125.6279995323" y2="-99.9460692522" />
      <path d="M 125.7370024994,-99.9463200771 A 0.2,0.00019220674609102695 0.0 0,0 125.6279995323,-99.9460692522" />
      <line x1="126.8394902574" y1="-99.9457163608" x2="134.4594230172" y2="-99.9487245915" />
      <path d="M 126.192978386,-99.9452533357 A 0.1,0.037997972996083824 89.9773805204904 0,1 126.1549803954,-100.0453421847" />
      <line x1="126.1549803954" y1="-100.0453421847" x2="126.2937296066" y2="-100.0453969607" />
      <line x1="126.877488248" y1="-100.0456274195" x2="134.4974210078" y2="-100.0486356502" />
      <line x1="126.1549803954" y1="-100.3453420461" x2="126.1549803954" y2="-100.0453421847" />
      <line x1="135.2199288603" y1="-100.3489207465" x2="126.1549803954" y2="-100.3453420461" />
      <line x1="135.0811796491" y1="-100.048866109" x2="135.2199288603" y2="-100.048920885" />
      <line x1="135.2199288603" y1="-100.3489207465" x2="135.2199288603" y2="-100.048920885" />
      <path d="M 125.7129984805,-100.0461422407 A 0.1,9.610337304551348e-05 0.0 0,0 125.7204990064,-100.0461057234" />
      <path d="M 125.6279995323,-99.9460692522 A 0.1,0.0924994314162556 90.13404144603918 0,0 125.7204990064,-100.0461057234" />
      <path d="M 125.9319834566,-99.9453580913 A 0.1,0.0924994314162556 90.13404144603918 0,0 126.0244829307,-100.0453945624" />
      <line x1="126.0244829307" y1="-100.0453945624" x2="125.7204990064" y2="-100.0461057234" />
      <path d="M 126.0244829307,-100.0453945624 A 0.1,9.610337304551348e-05 0.0 0,0 126.1549803954,-100.0453421847" />
      <path d="M 125.77500049,-100.3462309973 A 0.1,9.610337304551348e-05 0.0 0,0 125.7129984805,-100.3461421022" />
      <path d="M 125.7129984805,-100.3461421022 A 0.1,9.610337304551348e-05 0.0 0,0 125.7204990064,-100.3461055848" />
      <line x1="125.7204990064" y1="-100.3461055848" x2="125.7204990064" y2="-100.0461057234" />
      <path d="M 134.7214376365,-100.0497630498 C 134.7151579312,-99.9961723808 134.6903096777,-99.9485719669 134.6632017532,-99.9498440015" />
      <path d="M 134.6632017532,-99.9498440015 C 134.6254489558,-99.9512582838 134.5915764243,-99.9033479917 134.5925499641,-99.8499120595" />
      <path d="M 134.8778679886,-100.4497207252 A 0.1,0.03799797299608382 89.9773805204904 0,1 134.877907467,-100.4497207947" />
      <path d="M 134.877907467,-100.4497207947 A 0.1,0.03799797299608382 89.9773805204904 0,1 134.8779469454,-100.4497207564" />
      <path d="M 125.8129984805,-100.446142056 A 0.1,0.03799797299608382 -90.0226194795096 0,0 125.8129590021,-100.4461420944" />
      <path d="M 125.8129590021,-100.4461420944 A 0.1,0.03799797299608382 -90.0226194795096 0,0 125.812903495,-100.4461419658" />
      <line x1="134.8779469454" y1="-100.4497207564" x2="125.8129984805" y2="-100.446142056" />
      <line x1="134.6632017532" y1="-99.9498440015" x2="134.8019509644" y2="-99.9498987775" />
      <path d="M 134.8019509644,-99.9498987775 A 0.1,0.03799797299608382 -90.0226194795096 0,0 134.8019904428,-99.9498987391" />
      <path d="M 134.8019904428,-99.9498987391 A 0.1,0.03799797299608382 -90.0226194795096 0,0 134.8399489549,-100.0498098362" />
      <path d="M 134.3730718935,-99.8493723514 A 0.75,0.0007207752978413511 -3.106011865451321e-18 0,0 134.4286923258,-99.8491280902" />
      <line x1="126.0244829307" y1="-100.3453944239" x2="126.0244829307" y2="-100.0453945624" />
      <path d="M 126.0244829307,-100.3453944239 A 0.1,9.610337304551348e-05 0.0 0,0 126.1549803954,-100.3453420461" />
      <path d="M 135.2199288603,-100.3489207465 A 0.1,0.03799797299608382 -90.0226194795096 0,0 135.1819308698,-100.4490095954" />
      <path d="M 126.1169824049,-100.4454308951 A 0.1,0.037997972996083824 89.9773805204904 0,1 126.1549803954,-100.3453420461" />
      <line x1="135.1819308698" y1="-100.4490095954" x2="126.1169824049" y2="-100.4454308951" />
      <line x1="135.1191776397" y1="-99.9487772601" x2="135.2579268509" y2="-99.9488320361" />
      <path d="M 135.2579268509,-99.9488320361 A 0.1,0.03799797299608382 89.9773805204904 0,1 135.2199288603,-100.048920885" />
      <path d="M 135.2819308698,-100.3490096416 A 0.1,9.610337304551348e-05 180.0 0,1 135.2199288603,-100.3489207465" />
      <path d="M 135.2199288603,-100.048920885 A 0.1,9.610337304551348e-05 0.0 0,0 135.2819308698,-100.0490097802" />
      <line x1="125.7204990064" y1="-100.3461055848" x2="126.0244829307" y2="-100.3453944239" />
      <path d="M 125.8129984805,-100.446142056 A 0.1,0.0924994314162556 90.13404144603918 0,0 125.7204990064,-100.3461055848" />
      <path d="M 134.4286923258,-99.0491284596 A 0.75,0.0007207752978413511 0.0 0,0 135.8724383818,-99.0494023398" />
      <path d="M 134.3724383818,-99.0494023398 A 0.75,0.0007207752978413511 0.0 0,0 134.4286923258,-99.0491284596" />
      <path d="M 134.8784148364,-100.4497196617 A 0.1,0.0924994314162556 90.13404144603916 0,0 134.8781808917,-100.4497205289" />
      <path d="M 134.8781808917,-100.4497205289 A 0.1,0.0924994314162556 90.13404144603916 0,0 134.8779469454,-100.4497207564" />
      <line x1="134.8779469454" y1="-100.4497207564" x2="135.1819308698" y2="-100.4490095954" />
      <line x1="125.8129984805" y1="-100.446142056" x2="126.1169824049" y2="-100.4454308951" />
      <path d="M 134.8020299143,-99.9498988086 A 0.2,0.00019220674609102695 180.0 0,1 135.0624814325,-99.9497950992" />
      <path d="M 135.2579268509,-99.9488320361 A 0.2,0.00019220674609102695 0.0 0,0 135.3797434342,-99.9490381758" />
      <path d="M 135.0629458937,-99.9497940219 A 0.1,0.0924994314162556 -89.86595855396082 0,1 135.0627119475,-99.9497942494" />
      <path d="M 135.0627119475,-99.9497942494 A 0.1,0.0924994314162556 -89.86595855396082 0,1 134.9704464196,-100.0497574584" />
      <path d="M 126.1169824049,-100.4454308951 A 0.1,0.0924994314162556 90.13404144603918 0,0 126.0244829307,-100.3453944239" />
      <path d="M 135.182164816,-100.449009368 A 0.1,0.0924994314162556 90.13404144603919 0,0 135.1819308698,-100.4490095954" />
      <path d="M 134.5060479334,-98.9492041174 A 0.65,0.0006246719247958376 0.0 0,0 134.5211917999,-98.9491650232" />
      <line x1="126.6224909686" y1="-99.8457502353" x2="126.6224909686" y2="-99.0457506047" />
      <line x1="125.1224909686" y1="-99.8457502353" x2="125.1224909686" y2="-99.0457506047" />
      <path d="M 125.1224909686,-99.8457502353 C 125.1216353796,-99.8920165903 125.1571416171,-99.935430016 125.202666363,-99.9437669475 C 125.2060382295,-99.9442715874 125.2094100961,-99.9447762273 125.2127819626,-99.9452808672 C 125.2188002628,-99.9457276534 125.2231478927,-99.9459064926 125.2258248523,-99.9458173849 C 125.2515564406,-99.9460423949 125.401051662,-99.9462362181 125.6190265627,-99.9463254652" />
      <path d="M 125.2710104405,-98.9455135156 C 125.3647005986,-98.9452866835 125.6068216374,-98.9451277021 125.8603789565,-98.9451260412 C 126.104497905,-98.9451191389 126.3444448638,-98.9452578054 126.452537641,-98.9454685189 C 126.49496399,-98.9455343708 126.51909523,-98.9456345407 126.5249313608,-98.9457690286 C 126.5287582218,-98.9460867454 126.5325850827,-98.9464044622 126.5364119437,-98.946722179 C 126.5764577599,-98.9518202073 126.6112160109,-98.9836010551 126.6198732332,-99.0230196186 C 126.6207458116,-99.030596614 126.6216183901,-99.0381736093 126.6224909686,-99.0457506047" />
      <path d="M 125.1224909686,-99.0457506047 C 125.12162805,-98.9993678521 125.1573218575,-98.9558714347 125.2029896262,-98.947669038 C 125.2074186198,-98.9470923893 125.2118476135,-98.9465157405 125.2162766071,-98.9459390918 C 125.2239028204,-98.9455664458 125.2243498633,-98.9457392366 125.2342252591,-98.9456315721 C 125.2423025635,-98.9455912434 125.2545642907,-98.9455518913 125.2710104405,-98.9455135156" />
      <path d="M 125.6331449369,-99.9462261176 Q 125.6279652959,-99.9462136521 125.6227856549,-99.9462011865 Q 125.6156142487,-99.9461773882 125.614836026,-99.9461647757" />
      <path d="M 125.614836026,-99.9461647757 C 125.6145627303,-99.9460535966 125.6258726929,-99.9465674647 125.6313135552,-99.9478342524 C 125.6368561372,-99.9493715597 125.6423987192,-99.9509088669 125.6479413012,-99.9524461742 C 125.6805040167,-99.9656245387 125.7012959764,-99.9891893895 125.7103171804,-100.0231407265 C 125.7112109471,-100.0308078979 125.7121047138,-100.0384750693 125.7129984805,-100.0461422407" />
      <line x1="125.7129984805" y1="-100.3461421022" x2="125.7129984805" y2="-100.0461422407" />
      <line x1="134.877907467" y1="-100.4497207947" x2="125.8129590021" y2="-100.4461420944" />
      <line x1="134.6632546174" y1="-99.9498439683" x2="134.8019904428" y2="-99.9498987391" />
      <path d="M 134.2754174396,-99.9493427723 C 134.2796878435,-99.9492307624 134.3353050713,-99.9490484122 134.4265558575,-99.9489329779 C 134.4489009091,-99.9489023493 134.4733214432,-99.9488733285 134.4998174598,-99.9488459155" />
      <line x1="135.2819308698" y1="-100.3490096416" x2="135.2819308698" y2="-100.0490097802" />
      <path d="M 125.7129984805,-100.3461421022 A 0.1,0.1 -89.86595855396082 0,1 125.8129590021,-100.4461420944" />
      <line x1="135.8724383818" y1="-99.8494019703" x2="135.8724383818" y2="-99.0494023398" />
      <line x1="134.3724383818" y1="-99.8494019703" x2="134.3724383818" y2="-99.0494023398" />
      <path d="M 134.877907467,-100.4497207947 A 0.1,0.1 -89.86595855396082 0,1 134.8781808917,-100.4497205289" />
      <path d="M 134.8019904428,-99.9498987391 C 134.8269808048,-99.9499035412 134.8519711668,-99.9499083434 134.8769615288,-99.9499131455 C 134.9565154024,-99.9499145538 135.0336006466,-99.9498649984 135.0627119475,-99.9497942494" />
      <path d="M 135.182164816,-100.449009368 A 0.1,0.1 90.13404144603918 0,1 135.2819308698,-100.3490096416" />
      <path d="M 135.2819308698,-100.0490097802 C 135.2810463764,-100.0023520547 135.3172001042,-99.9586558997 135.3631902918,-99.9507820059 C 135.3684462227,-99.9495008527 135.3801392214,-99.9489144805 135.3800933243,-99.9490323152" />
      <path d="M 135.3800933243,-99.9490323152 Q 135.3788115187,-99.9490518939 135.3666958718,-99.9490830885" />
      <path d="M 134.5209578537,-98.9491652506 C 134.6146480118,-98.9489384186 134.8567690506,-98.9487794372 135.1103263697,-98.9487777763 C 135.3544453182,-98.9487708739 135.594392277,-98.9489095405 135.7024850542,-98.9491202539 C 135.7449114032,-98.9491861059 135.7690426432,-98.9492862758 135.774878774,-98.9494207637 C 135.778705635,-98.9497384804 135.7825324959,-98.9500561972 135.7863593569,-98.950373914 C 135.8264051731,-98.9554719423 135.861163424,-98.9872527901 135.8698206463,-99.0266713537 C 135.8706932248,-99.034248349 135.8715658033,-99.0418253444 135.8724383818,-99.0494023398" />
      <path d="M 134.3724383818,-99.0494023398 C 134.3715754631,-99.0030195871 134.4072692707,-98.9595231698 134.4529370394,-98.9513207731 C 134.457366033,-98.9507441243 134.4617950267,-98.9501674756 134.4662240203,-98.9495908268 C 134.4738502335,-98.9492181809 134.4742972765,-98.9493909717 134.4841726723,-98.9492833072 C 134.4922499767,-98.9492429785 134.5045117039,-98.9492036263 134.5209578537,-98.9491652506" />
      <line x1="134.8781808917" y1="-100.4497205289" x2="135.182164816" y2="-100.449009368" />
    </g>
  </g>
</svg>