<?xml version='1.0' encoding='utf-8'?>
<svg width="513.0mm" height="356.6299330274mm" viewBox="-59.2153370049 -50.8818873563 148.5790334177 103.289923464" version="1.1" xmlns="http://www.w3.org/2000/svg">
  <g transform="scale(1,-1)" stroke-linecap="round">
    <g fill="none" stroke="rgb(64,192,64)" stroke-width="0.28962774545360015" id="Visible">
      <line x1="-59.0705231322" y1="30.7542796767" x2="-24.7718697861" y2="50.1685868839" />
      <path d="M -21.720940394,50.4394366375 A 6.0,3.4981510102528075 -120.5631840049476 0,1 -24.7718697861,50.1685868839" />
      <line x1="-59.0705231322" y1="-3.5146674911" x2="-59.0705231322" y2="30.7542796767" />
      <line x1="48.548471017" y1="-3.8044777444" x2="57.7784503061" y2="1.4200321401" />
      <line x1="48.548471017" y1="-3.8044777444" x2="45.8422909993" y2="2.2921866049" />
      <line x1="39.6613829038" y1="1.375112364" x2="45.8422909993" y2="2.2921866049" />
      <line x1="39.6613829038" y1="1.375112364" x2="-27.4150880543" y2="40.9858735684" />
      <line x1="-38.847972503" y1="34.5144378327" x2="-27.4150880543" y2="40.9858735684" />
      <line x1="25.7626284791" y1="-3.6401497629" x2="-38.847972503" y2="34.5144378327" />
      <line x1="28.5100241938" y1="-9.8296676063" x2="25.7626284791" y2="-3.6401497629" />
      <line x1="28.5100241938" y1="-9.8296676063" x2="41.2410733896" y2="-7.9407352526" />
      <line x1="23.47979696" y1="-17.9942750671" x2="41.2410733896" y2="-7.9407352526" />
      <line x1="-59.0705231322" y1="30.7542796767" x2="23.47979696" y2="-17.9942750671" />
      <path d="M 62.0657819744,-1.0487433401 A 6.0,3.4981510102528075 -120.5631840049476 0,1 60.8293796982,1.6908818937" />
      <path d="M 60.8293796982,1.6908818937 A 6.0,3.4981510102528075 -120.5631840049476 0,1 57.7784503061,1.4200321401" />
      <line x1="-59.0705231322" y1="-3.5146674911" x2="23.47979696" y2="-52.2632222349" />
      <line x1="23.47979696" y1="-52.2632222349" x2="23.47979696" y2="-17.9942750671" />
      <line x1="62.0657819744" y1="-25.5265627457" x2="62.0657819744" y2="-1.0487433401" />
      <line x1="48.548471017" y1="-38.0734249123" x2="57.7784503061" y2="-32.8489150277" />
      <line x1="48.548471017" y1="-38.0734249123" x2="45.8422909993" y2="-31.9767605629" />
      <line x1="41.2410733896" y1="-32.6594528278" x2="45.8422909993" y2="-31.9767605629" />
      <line x1="23.47979696" y1="-52.2632222349" x2="41.2410733896" y2="-42.2096824205" />
      <path d="M 62.0657819744,-25.5265627457 A 6.0,3.4981510102528075 59.43681599505241 0,0 57.7784503061,-32.8489150277" />
      <line x1="48.548471017" y1="-38.0734249123" x2="48.548471017" y2="-3.8044777444" />
      <line x1="45.8422909993" y1="-31.9767605629" x2="45.8422909993" y2="2.2921866049" />
      <line x1="39.6613829038" y1="-8.1751172287" x2="39.6613829038" y2="1.375112364" />
      <line x1="-27.4150880543" y1="27.7629607602" x2="-27.4150880543" y2="40.9858735684" />
      <line x1="27.6248474895" y1="-7.835481994" x2="30.5014358525" y2="-9.5341977001" />
      <line x1="41.2410733896" y1="-42.2096824205" x2="41.2410733896" y2="-7.9407352526" />
      <path d="M 89.21888254,-19.9480306356 A 6.0,3.4981510102528075 -120.5631840049476 0,1 87.9824802639,-17.2084054018" />
      <path d="M 87.9824802639,-17.2084054018 A 6.0,3.4981510102528075 -120.5631840049476 0,1 81.8806214797,-27.5412326711" />
      <path d="M 81.8806214797,-27.5412326711 A 6.0,3.4981510102528075 -120.5631840049476 0,1 89.21888254,-19.9480306356" />
      <path d="M 83.7850063609,-14.7296653301 A 6.0,3.4981510102528075 -120.5631840049476 0,1 77.6831475767,-25.0624925994" />
      <path d="M 89.21888254,24.1120442945 A 6.0,3.4981510102528075 -120.5631840049476 0,1 87.9824802639,26.8516695283" />
      <path d="M 87.9824802639,26.8516695283 A 6.0,3.4981510102528075 -120.5631840049476 0,1 81.8806214797,16.518842259" />
      <path d="M 81.8806214797,16.518842259 A 6.0,3.4981510102528075 -120.5631840049476 0,1 89.21888254,24.1120442945" />
      <path d="M 83.7850063609,29.3304096 A 6.0,3.4981510102528075 -120.5631840049476 0,1 77.6831475767,18.9975823307" />
      <line x1="-24.7718697861" y1="50.1685868839" x2="57.7784503061" y2="1.4200321401" />
      <line x1="-21.720940394" y1="50.4394366375" x2="60.8293796982" y2="1.6908818937" />
      <line x1="77.6831475767" y1="-25.0624925994" x2="81.8806214797" y2="-27.5412326711" />
      <line x1="83.7850063609" y1="-14.7296653301" x2="87.9824802639" y2="-17.2084054018" />
      <line x1="77.6831475767" y1="18.9975823307" x2="81.8806214797" y2="16.518842259" />
      <line x1="83.7850063609" y1="29.3304096" x2="87.9824802639" y2="26.8516695283" />
    </g>
  </g>
</svg>